<?xml version="1.0" encoding="UTF-8"?> <svg xmlns="http://www.w3.org/2000/svg" width="997" height="235" viewBox="0 0 997 235" fill="none"> <rect width="235" height="235" rx="53.0075" fill="#3273DC"></rect> <rect width="235" height="235" rx="53.0075" fill="#3273DC"></rect> <circle cx="117.5" cy="117.498" r="41.6992" transform="rotate(-58.96 117.5 117.498)" stroke="white" stroke-width="20.8496"></circle> <path d="M45.9629 135.281L72.3469 91.4403L74.4162 88.0018L76.9469 84.8409L82.211 79.2267L97.5132 88.4358L63.827 146.032L45.9629 135.281Z" fill="white"></path> <path d="M134.619 149.699L170.634 89.8544L188.499 100.605L161.768 145.021L156.28 152.279C155.967 152.692 155.623 153.079 155.248 153.437V153.437C152.18 156.368 147.557 156.953 143.856 154.878L134.619 149.699Z" fill="white"></path> <path d="M294.5 175V67H336.95C343.8 67 349.55 68.4 354.2 71.2C358.85 74 362.35 77.625 364.7 82.075C367.05 86.475 368.225 91.125 368.225 96.025C368.225 101.975 366.75 107.075 363.8 111.325C360.9 115.575 356.975 118.475 352.025 120.025L351.875 116.35C358.775 118.05 364.075 121.375 367.775 126.325C371.475 131.225 373.325 136.95 373.325 143.5C373.325 149.85 372.05 155.375 369.5 160.075C367 164.775 363.325 168.45 358.475 171.1C353.675 173.7 347.85 175 341 175H294.5ZM310.4 160.075H338.6C342.15 160.075 345.325 159.4 348.125 158.05C350.975 156.7 353.2 154.775 354.8 152.275C356.45 149.725 357.275 146.7 357.275 143.2C357.275 139.95 356.55 137.025 355.1 134.425C353.7 131.775 351.65 129.7 348.95 128.2C346.3 126.65 343.175 125.875 339.575 125.875H310.4V160.075ZM310.4 111.1H336.725C339.625 111.1 342.225 110.525 344.525 109.375C346.875 108.175 348.725 106.475 350.075 104.275C351.475 102.025 352.175 99.325 352.175 96.175C352.175 91.975 350.775 88.525 347.975 85.825C345.175 83.125 341.425 81.775 336.725 81.775H310.4V111.1ZM388.25 175V94H402.2V113.65L400.25 111.1C401.25 108.5 402.55 106.125 404.15 103.975C405.75 101.775 407.6 99.975 409.7 98.575C411.75 97.075 414.025 95.925 416.525 95.125C419.075 94.275 421.675 93.775 424.325 93.625C426.975 93.425 429.525 93.55 431.975 94V108.7C429.325 108 426.375 107.8 423.125 108.1C419.925 108.4 416.975 109.425 414.275 111.175C411.725 112.825 409.7 114.825 408.2 117.175C406.75 119.525 405.7 122.15 405.05 125.05C404.4 127.9 404.075 130.925 404.075 134.125V175H388.25ZM466.789 177.25C460.789 177.25 455.764 176.15 451.714 173.95C447.664 171.7 444.589 168.75 442.489 165.1C440.439 161.4 439.414 157.35 439.414 152.95C439.414 148.85 440.139 145.25 441.589 142.15C443.039 139.05 445.189 136.425 448.039 134.275C450.889 132.075 454.389 130.3 458.539 128.95C462.139 127.9 466.214 126.975 470.764 126.175C475.314 125.375 480.089 124.625 485.089 123.925C490.139 123.225 495.139 122.525 500.089 121.825L494.389 124.975C494.489 118.625 493.139 113.925 490.339 110.875C487.589 107.775 482.839 106.225 476.089 106.225C471.839 106.225 467.939 107.225 464.389 109.225C460.839 111.175 458.364 114.425 456.964 118.975L442.339 114.475C444.339 107.525 448.139 102 453.739 97.9C459.389 93.8 466.889 91.75 476.239 91.75C483.489 91.75 489.789 93 495.139 95.5C500.539 97.95 504.489 101.85 506.989 107.2C508.289 109.85 509.089 112.65 509.389 115.6C509.689 118.55 509.839 121.725 509.839 125.125V175H495.964V156.475L498.664 158.875C495.314 165.075 491.039 169.7 485.839 172.75C480.689 175.75 474.339 177.25 466.789 177.25ZM469.564 164.425C474.014 164.425 477.839 163.65 481.039 162.1C484.239 160.5 486.814 158.475 488.764 156.025C490.714 153.575 491.989 151.025 492.589 148.375C493.439 145.975 493.914 143.275 494.014 140.275C494.164 137.275 494.239 134.875 494.239 133.075L499.339 134.95C494.389 135.7 489.889 136.375 485.839 136.975C481.789 137.575 478.114 138.175 474.814 138.775C471.564 139.325 468.664 140 466.114 140.8C463.964 141.55 462.039 142.45 460.339 143.5C458.689 144.55 457.364 145.825 456.364 147.325C455.414 148.825 454.939 150.65 454.939 152.8C454.939 154.9 455.464 156.85 456.514 158.65C457.564 160.4 459.164 161.8 461.314 162.85C463.464 163.9 466.214 164.425 469.564 164.425ZM530.814 80.725V65.5H546.489V80.725H530.814ZM530.814 175V94H546.489V175H530.814ZM625.862 175V135.175C625.862 132.025 625.587 128.8 625.037 125.5C624.537 122.15 623.537 119.05 622.037 116.2C620.587 113.35 618.512 111.05 615.812 109.3C613.162 107.55 609.687 106.675 605.387 106.675C602.587 106.675 599.937 107.15 597.437 108.1C594.937 109 592.737 110.475 590.837 112.525C588.987 114.575 587.512 117.275 586.412 120.625C585.362 123.975 584.837 128.05 584.837 132.85L575.087 129.175C575.087 121.825 576.462 115.35 579.212 109.75C581.962 104.1 585.912 99.7 591.062 96.55C596.212 93.4 602.437 91.825 609.737 91.825C615.337 91.825 620.037 92.725 623.837 94.525C627.637 96.325 630.712 98.7 633.062 101.65C635.462 104.55 637.287 107.725 638.537 111.175C639.787 114.625 640.637 118 641.087 121.3C641.537 124.6 641.762 127.5 641.762 130V175H625.862ZM568.937 175V94H582.962V117.4H584.837V175H568.937ZM661.297 175V67H725.272V82.675H676.972V113.125H716.272V128.875H676.972V175H661.297ZM772.515 177.25C764.465 177.25 757.39 175.5 751.29 172C745.24 168.45 740.515 163.525 737.115 157.225C733.765 150.875 732.09 143.525 732.09 135.175C732.09 126.325 733.74 118.65 737.04 112.15C740.39 105.65 745.04 100.625 750.99 97.075C756.94 93.525 763.865 91.75 771.765 91.75C780.015 91.75 787.04 93.675 792.84 97.525C798.64 101.325 802.965 106.75 805.815 113.8C808.715 120.85 809.865 129.225 809.265 138.925H793.59V133.225C793.49 123.825 791.69 116.875 788.19 112.375C784.74 107.875 779.465 105.625 772.365 105.625C764.515 105.625 758.615 108.1 754.665 113.05C750.715 118 748.74 125.15 748.74 134.5C748.74 143.4 750.715 150.3 754.665 155.2C758.615 160.05 764.315 162.475 771.765 162.475C776.665 162.475 780.89 161.375 784.44 159.175C788.04 156.925 790.84 153.725 792.84 149.575L808.215 154.45C805.065 161.7 800.29 167.325 793.89 171.325C787.49 175.275 780.365 177.25 772.515 177.25ZM743.64 138.925V126.7H801.465V138.925H743.64ZM862.017 177.25C853.967 177.25 846.892 175.5 840.792 172C834.742 168.45 830.017 163.525 826.617 157.225C823.267 150.875 821.592 143.525 821.592 135.175C821.592 126.325 823.242 118.65 826.542 112.15C829.892 105.65 834.542 100.625 840.492 97.075C846.442 93.525 853.367 91.75 861.267 91.75C869.517 91.75 876.542 93.675 882.342 97.525C888.142 101.325 892.467 106.75 895.317 113.8C898.217 120.85 899.367 129.225 898.767 138.925H883.092V133.225C882.992 123.825 881.192 116.875 877.692 112.375C874.242 107.875 868.967 105.625 861.867 105.625C854.017 105.625 848.117 108.1 844.167 113.05C840.217 118 838.242 125.15 838.242 134.5C838.242 143.4 840.217 150.3 844.167 155.2C848.117 160.05 853.817 162.475 861.267 162.475C866.167 162.475 870.392 161.375 873.942 159.175C877.542 156.925 880.342 153.725 882.342 149.575L897.717 154.45C894.567 161.7 889.792 167.325 883.392 171.325C876.992 175.275 869.867 177.25 862.017 177.25ZM833.142 138.925V126.7H890.967V138.925H833.142ZM947.769 177.25C940.219 177.25 933.694 175.375 928.194 171.625C922.744 167.875 918.519 162.775 915.519 156.325C912.569 149.825 911.094 142.525 911.094 134.425C911.094 126.275 912.594 119 915.594 112.6C918.594 106.15 922.844 101.075 928.344 97.375C933.894 93.625 940.469 91.75 948.069 91.75C955.719 91.75 962.144 93.625 967.344 97.375C972.594 101.075 976.544 106.15 979.194 112.6C981.894 119.05 983.244 126.325 983.244 134.425C983.244 142.525 981.894 149.8 979.194 156.25C976.494 162.7 972.519 167.825 967.269 171.625C962.019 175.375 955.519 177.25 947.769 177.25ZM949.944 163.075C955.094 163.075 959.294 161.85 962.544 159.4C965.794 156.95 968.169 153.575 969.669 149.275C971.169 144.975 971.919 140.025 971.919 134.425C971.919 128.825 971.144 123.875 969.594 119.575C968.094 115.275 965.744 111.925 962.544 109.525C959.394 107.125 955.369 105.925 950.469 105.925C945.269 105.925 940.994 107.2 937.644 109.75C934.294 112.3 931.794 115.725 930.144 120.025C928.544 124.325 927.744 129.125 927.744 134.425C927.744 139.775 928.544 144.625 930.144 148.975C931.794 153.275 934.244 156.7 937.494 159.25C940.794 161.8 944.944 163.075 949.944 163.075ZM971.919 175V116.725H970.119V67H985.869V175H971.919Z" fill="black"></path> </svg> 