<svg width="152" height="36" viewBox="0 0 152 36" fill="none" xmlns="http://www.w3.org/2000/svg">
<rect width="36" height="36" rx="8.1203" fill="#3273DC"/>
<rect width="36" height="36" rx="8.1203" fill="#0275E3"/>
<circle cx="17.998" cy="17.9984" r="6.38797" transform="rotate(-58.96 17.998 17.9984)" stroke="white" stroke-width="3.19398"/>
<path d="M7.03906 20.7227L11.0809 14.0066L11.3979 13.4798L11.7855 12.9956L12.592 12.1356L14.9361 13.5463L9.77569 22.3696L7.03906 20.7227Z" fill="white"/>
<path d="M20.6211 22.9316L26.1383 13.7639L28.875 15.4109L24.7801 22.215L23.9393 23.3269C23.8915 23.3901 23.8386 23.4494 23.7813 23.5042C23.3113 23.9533 22.6031 24.0428 22.0361 23.7249L20.6211 22.9316Z" fill="white"/>
<path d="M45.1144 26.2988V9.75415H51.5599C52.548 9.75415 53.3905 9.95713 54.0876 10.3631C54.7922 10.769 55.3284 11.3052 55.6961 11.9716C56.0714 12.6303 56.2591 13.3427 56.2591 14.1086C56.2591 15.0048 56.0293 15.7899 55.5697 16.4639C55.1101 17.138 54.4897 17.6014 53.7084 17.8541L53.6854 17.2912C54.7501 17.5746 55.5773 18.0954 56.1671 18.8537C56.7569 19.612 57.0518 20.5158 57.0518 21.5652C57.0518 22.5303 56.8527 23.3652 56.4544 24.0699C56.0637 24.7746 55.4969 25.3222 54.7539 25.7129C54.0186 26.1035 53.1454 26.2988 52.1344 26.2988H45.1144ZM47.1825 24.3456H51.7437C52.3565 24.3456 52.9042 24.2346 53.3867 24.0124C53.8693 23.7827 54.2484 23.461 54.5242 23.0473C54.8076 22.6337 54.9493 22.1358 54.9493 21.5537C54.9493 20.9946 54.8229 20.4929 54.5701 20.0486C54.325 19.6044 53.9765 19.252 53.5246 18.9916C53.0803 18.7235 52.5633 18.5895 51.9735 18.5895H47.1825V24.3456ZM47.1825 16.6593H51.5369C52.0271 16.6593 52.4676 16.5558 52.8582 16.349C53.2565 16.1346 53.5705 15.8358 53.8003 15.4529C54.0378 15.0699 54.1565 14.6218 54.1565 14.1086C54.1565 13.3963 53.9152 12.8141 53.4327 12.3622C52.9501 11.9103 52.3182 11.6844 51.5369 11.6844H47.1825V16.6593ZM59.3414 26.2988V13.8903H61.1682V16.889L60.8695 16.4984C61.015 16.1154 61.2027 15.7631 61.4325 15.4414C61.6699 15.1197 61.9342 14.8554 62.2253 14.6486C62.547 14.3882 62.9108 14.189 63.3168 14.0512C63.7227 13.9133 64.1363 13.8329 64.5576 13.8099C64.9789 13.7793 65.3733 13.8061 65.741 13.8903V15.809C65.3121 15.6941 64.841 15.6635 64.3278 15.7171C63.8146 15.7707 63.3397 15.9584 62.9031 16.2801C62.5048 16.5635 62.1946 16.9082 61.9725 17.3141C61.758 17.7201 61.6087 18.1605 61.5244 18.6354C61.4402 19.1027 61.398 19.5814 61.398 20.0716V26.2988H59.3414ZM71.0369 26.6435C70.1101 26.6435 69.3326 26.475 68.7045 26.138C68.0841 25.7933 67.6131 25.3414 67.2914 24.7822C66.9773 24.2231 66.8203 23.6103 66.8203 22.9439C66.8203 22.2929 66.9428 21.7299 67.1879 21.255C67.4407 20.7724 67.7931 20.3741 68.245 20.0601C68.6969 19.7384 69.2369 19.4856 69.865 19.3018C70.4548 19.141 71.1135 19.0031 71.8411 18.8882C72.5765 18.7656 73.3194 18.6546 74.0701 18.555C74.8207 18.4554 75.5216 18.3597 76.1726 18.2678L75.4373 18.6929C75.4603 17.5899 75.2382 16.7741 74.7709 16.2456C74.3114 15.7171 73.5148 15.4529 72.3811 15.4529C71.6305 15.4529 70.9718 15.6252 70.405 15.9699C69.8458 16.3069 69.4514 16.8584 69.2216 17.6244L67.2799 17.0384C67.5786 15.9507 68.1569 15.0967 69.0148 14.4763C69.8726 13.8558 71.0024 13.5456 72.4041 13.5456C73.5301 13.5456 74.4952 13.7486 75.2994 14.1546C76.1114 14.5529 76.6935 15.158 77.0458 15.9699C77.222 16.3529 77.3331 16.7703 77.379 17.2222C77.425 17.6665 77.4479 18.1337 77.4479 18.6239V26.2988H75.6326V23.3231L76.0577 23.5988C75.5905 24.6022 74.9356 25.3605 74.0931 25.8737C73.2582 26.3869 72.2394 26.6435 71.0369 26.6435ZM71.3471 24.9316C72.0824 24.9316 72.7182 24.8014 73.2543 24.541C73.7982 24.2729 74.2348 23.9244 74.5641 23.4954C74.8935 23.0588 75.1079 22.5839 75.2075 22.0707C75.3224 21.6878 75.3837 21.2627 75.3914 20.7954C75.4067 20.3205 75.4143 19.9567 75.4143 19.7039L76.1267 20.0141C75.4603 20.1061 74.8054 20.1941 74.162 20.2784C73.5186 20.3627 72.9096 20.4546 72.3352 20.5541C71.7607 20.6461 71.2437 20.7571 70.7841 20.8873C70.4471 20.9946 70.1292 21.1324 69.8305 21.301C69.5394 21.4695 69.302 21.6878 69.1182 21.9558C68.942 22.2163 68.8539 22.5418 68.8539 22.9324C68.8539 23.2695 68.9382 23.5912 69.1067 23.8976C69.2828 24.2039 69.5509 24.4529 69.9109 24.6444C70.2786 24.8358 70.7573 24.9316 71.3471 24.9316ZM80.665 11.6958V9.58181H82.7101V11.6958H80.665ZM80.665 26.2988V13.8903H82.7101V26.2988H80.665ZM94.9927 26.2988V20.0831C94.9927 19.4933 94.9391 18.9265 94.8319 18.3827C94.7323 17.8388 94.5523 17.3524 94.2919 16.9235C94.0391 16.4869 93.6944 16.1422 93.2578 15.8895C92.8289 15.6367 92.2851 15.5103 91.6264 15.5103C91.1132 15.5103 90.6459 15.5984 90.2247 15.7746C89.811 15.9431 89.4549 16.2035 89.1561 16.5558C88.8574 16.9082 88.6238 17.3524 88.4553 17.8886C88.2944 18.4171 88.214 19.0414 88.214 19.7614L86.8698 19.3478C86.8698 18.1452 87.0842 17.115 87.5132 16.2571C87.9498 15.3916 88.5587 14.729 89.34 14.2695C90.1289 13.8022 91.0557 13.5686 92.1204 13.5686C92.9247 13.5686 93.6102 13.695 94.177 13.9478C94.7438 14.2005 95.2149 14.5376 95.5902 14.9588C95.9655 15.3724 96.2604 15.8397 96.4749 16.3605C96.6893 16.8737 96.8387 17.3984 96.923 17.9346C97.0149 18.4631 97.0608 18.9648 97.0608 19.4397V26.2988H94.9927ZM86.1459 26.2988V13.8903H87.9842V17.2107H88.214V26.2988H86.1459ZM100.048 26.2988V9.75415H109.699V11.7993H102.093V17.0039H108.32V19.049H102.093V26.2988H100.048ZM116.802 26.6435C115.584 26.6435 114.52 26.3754 113.608 25.8393C112.704 25.2954 112 24.541 111.494 23.5758C110.988 22.6031 110.736 21.4695 110.736 20.175C110.736 18.8193 110.985 17.6473 111.482 16.6593C111.98 15.6635 112.674 14.8976 113.562 14.3614C114.458 13.8176 115.508 13.5456 116.71 13.5456C117.959 13.5456 119.02 13.8329 119.893 14.4073C120.774 14.9818 121.432 15.8014 121.869 16.8661C122.313 17.9307 122.505 19.1984 122.443 20.669H120.375V19.9337C120.352 18.4095 120.042 17.272 119.445 16.5214C118.847 15.7631 117.959 15.3839 116.779 15.3839C115.515 15.3839 114.554 15.7899 113.895 16.6018C113.237 17.4137 112.907 18.578 112.907 20.0946C112.907 21.5576 113.237 22.6912 113.895 23.4954C114.554 24.2997 115.492 24.7018 116.71 24.7018C117.53 24.7018 118.242 24.5141 118.847 24.1388C119.452 23.7635 119.927 23.2235 120.272 22.5188L122.237 23.1967C121.754 24.292 121.026 25.1422 120.054 25.7473C119.088 26.3448 118.005 26.6435 116.802 26.6435ZM112.218 20.669V19.0261H121.386V20.669H112.218ZM130.378 26.6435C129.16 26.6435 128.096 26.3754 127.184 25.8393C126.28 25.2954 125.576 24.541 125.07 23.5758C124.565 22.6031 124.312 21.4695 124.312 20.175C124.312 18.8193 124.561 17.6473 125.059 16.6593C125.557 15.6635 126.25 14.8976 127.138 14.3614C128.035 13.8176 129.084 13.5456 130.286 13.5456C131.535 13.5456 132.596 13.8329 133.469 14.4073C134.35 14.9818 135.009 15.8014 135.445 16.8661C135.889 17.9307 136.081 19.1984 136.02 20.669H133.952V19.9337C133.929 18.4095 133.618 17.272 133.021 16.5214C132.423 15.7631 131.535 15.3839 130.355 15.3839C129.092 15.3839 128.13 15.7899 127.472 16.6018C126.813 17.4137 126.483 18.578 126.483 20.0946C126.483 21.5576 126.813 22.6912 127.472 23.4954C128.13 24.2997 129.069 24.7018 130.286 24.7018C131.106 24.7018 131.818 24.5141 132.423 24.1388C133.029 23.7635 133.503 23.2235 133.848 22.5188L135.813 23.1967C135.33 24.292 134.603 25.1422 133.63 25.7473C132.665 26.3448 131.581 26.6435 130.378 26.6435ZM125.794 20.669V19.0261H134.963V20.669H125.794ZM143.449 26.6435C142.293 26.6435 141.301 26.3563 140.473 25.7818C139.646 25.1997 139.007 24.4146 138.555 23.4265C138.11 22.4384 137.888 21.3239 137.888 20.0831C137.888 18.8422 138.11 17.7278 138.555 16.7397C139.007 15.7516 139.646 14.9741 140.473 14.4073C141.301 13.8329 142.289 13.5456 143.438 13.5456C144.61 13.5456 145.594 13.829 146.39 14.3958C147.187 14.9627 147.788 15.7401 148.194 16.7282C148.608 17.7163 148.815 18.8346 148.815 20.0831C148.815 21.3163 148.608 22.4307 148.194 23.4265C147.788 24.4146 147.187 25.1997 146.39 25.7818C145.594 26.3563 144.613 26.6435 143.449 26.6435ZM143.702 24.7707C144.537 24.7707 145.222 24.5716 145.758 24.1733C146.295 23.7673 146.689 23.212 146.942 22.5073C147.202 21.795 147.333 20.9869 147.333 20.0831C147.333 19.1639 147.202 18.3558 146.942 17.6588C146.689 16.9541 146.298 16.4065 145.77 16.0158C145.241 15.6176 144.571 15.4184 143.759 15.4184C142.917 15.4184 142.22 15.6252 141.668 16.0388C141.124 16.4524 140.718 17.0116 140.45 17.7163C140.19 18.421 140.06 19.2099 140.06 20.0831C140.06 20.9639 140.194 21.7605 140.462 22.4729C140.73 23.1776 141.132 23.7367 141.668 24.1503C142.212 24.5639 142.89 24.7707 143.702 24.7707ZM147.333 26.2988V17.1648H147.103V9.75415H149.159V26.2988H147.333Z" fill="black"/>
</svg>
